<?xml version="1.0" encoding="utf-8"?>
<!-- Generator: Adobe Illustrator 24.3.0, SVG Export Plug-In . SVG Version: 6.00 Build 0)  -->
<svg version="1.2" baseProfile="tiny" id="g-unisportsfinalai-Artboard_1-stuff-img" xmlns="http://www.w3.org/2000/svg" xmlns:xlink="http://www.w3.org/1999/xlink"
	 x="0px" y="0px" viewBox="0 0 1236.766 969.872" overflow="visible" xml:space="preserve">
<g>
	<path fill="none" stroke="#000000" stroke-width="1.5527" d="M174.888,776.409c505.124,0,543.093-0.303,1048.217-0.303"/>
	<path fill="none" stroke="#000000" d="M174.888,793.948c505.124,0,543.093-16.857,1048.217-16.857"/>
	<path fill="none" stroke="#000000" d="M174.888,759.526c505.124,0,543.093,15.595,1048.217,15.595"/>
	<g>
		<rect x="169.681" y="209.933" width="5.207" height="24.956"/>
		<rect x="1221.931" y="27.804" width="5.207" height="293.564"/>
		<rect x="169.681" y="543.083" width="5.207" height="11.165"/>
		<rect x="169.681" y="173.02" width="5.207" height="28.897"/>
		<rect x="169.681" y="464.523" width="5.207" height="17.075"/>
		<rect x="169.681" y="59.132" width="5.207" height="59.107"/>
		<rect x="169.681" y="713.746" width="5.207" height="4.597"/>
		<rect x="169.681" y="242.906" width="5.207" height="24.956"/>
		<rect x="169.681" y="275.879" width="5.207" height="25.613"/>
		<rect x="169.681" y="603.255" width="5.207" height="11.165"/>
		<rect x="169.681" y="562.265" width="5.207" height="12.478"/>
		<rect x="169.681" y="376.769" width="5.207" height="21.016"/>
		<rect x="169.681" y="767.871" width="5.207" height="9.194"/>
		<rect x="169.681" y="344.452" width="5.207" height="24.299"/>
		<rect x="169.681" y="699.819" width="5.207" height="5.911"/>
		<rect x="169.681" y="405.801" width="5.207" height="21.016"/>
		<rect x="169.681" y="582.76" width="5.207" height="12.478"/>
		<rect x="169.681" y="309.509" width="5.207" height="26.926"/>
		<rect x="169.681" y="622.436" width="5.207" height="11.165"/>
		<rect x="169.681" y="126.255" width="5.207" height="38.748"/>
		<rect x="169.681" y="785.082" width="5.207" height="9.194"/>
		<rect x="169.681" y="681.951" width="5.207" height="9.851"/>
		<rect x="169.681" y="489.615" width="5.207" height="18.389"/>
		<rect x="169.681" y="516.021" width="5.207" height="19.046"/>
		<rect x="169.681" y="434.834" width="5.207" height="21.672"/>
		<rect x="169.681" y="726.36" width="5.207" height="33.494"/>
		<rect x="169.681" y="641.618" width="5.207" height="11.821"/>
		<rect x="169.681" y="661.456" width="5.207" height="12.478"/>
		<rect x="1223.261" y="461.45" width="5.207" height="230.516"/>
		<rect x="1223.105" y="774.793" width="5.207" height="2.627"/>
	</g>
	<path fill="none" stroke="#ADADAD" stroke-width="17.0801" d="M174.888,227.665c505.124,0,543.248,311.937,1048.372,311.937"/>
	<path fill="none" stroke="#ADADAD" stroke-width="1.5527" d="M174.888,553.591c505.124,0,543.248,81.895,1048.372,81.895"/>
	<path fill="none" stroke="#ADADAD" stroke-width="17.8565" d="M174.888,194.364c505.124,0,543.248,330.462,1048.372,330.462"/>
	<path fill="none" stroke="#ADADAD" stroke-width="10.0928" d="M174.888,477.33c505.124,0,543.248,139.44,1048.372,139.44"/>
	<path fill="none" stroke="#ADADAD" stroke-width="38.8184" d="M174.888,101.82c505.124,0,543.248,376.049,1048.372,376.049"/>
	<path fill="none" stroke="#ADADAD" stroke-width="3.1055" d="M174.888,717.03c505.124,0,543.248-46.079,1048.372-46.079"/>
	<path fill="none" stroke="#ADADAD" stroke-width="5.4346" d="M174.888,265.564c505.124,0,543.248,283.561,1048.372,283.561"/>
	<path fill="none" stroke="#ADADAD" stroke-width="7.7637" d="M174.888,298.209c505.124,0,543.248,256.499,1048.372,256.499"/>
	<path fill="none" stroke="#ADADAD" stroke-width="4.6582" d="M174.888,612.449c505.124,0,543.248,37.486,1048.372,37.486"/>
	<path fill="none" stroke="#ADADAD" stroke-width="2.3291" d="M174.888,573.758c505.124,0,543.248,63.371,1048.372,63.371"/>
	<path fill="none" stroke="#ADADAD" stroke-width="9.3164" d="M174.888,393.844c505.124,0,543.248,193.7,1048.372,193.7"/>
	<path fill="none" stroke="#ADADAD" d="M174.888,775.423c505.124,0,543.248-89.039,1048.372-89.039"/>
	<path fill="none" stroke="#ADADAD" stroke-width="17.0801" d="M174.888,361.528c505.124,0,543.248,214.852,1048.372,214.852"/>
	<path fill="none" stroke="#ADADAD" stroke-width="3.1055" d="M174.888,704.416c505.124,0,543.248-36.092,1048.372-36.092"/>
	<path fill="none" stroke="#ADADAD" stroke-width="10.0928" d="M174.888,422.548c505.124,0,543.248,173.205,1048.372,173.205"/>
	<path fill="none" stroke="#ADADAD" stroke-width="13.1983" d="M174.888,330.853c505.124,0,543.248,232.72,1048.372,232.72"/>
	<path fill="none" stroke="#ADADAD" stroke-width="5.4346" d="M174.888,631.302c505.124,0,543.248,22.901,1048.372,22.901"/>
	<path fill="none" stroke="#ADADAD" stroke-width="27.1729" d="M174.888,153.51c505.124,0,543.248,352.27,1048.372,352.27"/>
	<path fill="none" stroke="#ADADAD" stroke-width="6.2109" d="M174.888,790.993c505.124,0,543.248-101.654,1048.372-101.654"/>
	<path fill="none" stroke="#ADADAD" stroke-width="3.1055" d="M174.888,690.488c505.124,0,543.248-24.792,1048.372-24.792"/>
	<path fill="none" stroke="#ADADAD" stroke-width="10.0928" d="M174.888,503.735c505.124,0,543.248,121.572,1048.372,121.572"/>
	<path fill="none" stroke="#ADADAD" stroke-width="6.2109" d="M174.888,532.44c505.124,0,543.248,99.763,1048.372,99.763"/>
	<path fill="none" stroke="#ADADAD" stroke-width="14.751" d="M174.888,450.267c505.124,0,543.248,155.994,1048.372,155.994"/>
	<path fill="none" stroke="#ADADAD" stroke-width="16.3037" d="M174.888,752.302c505.124,0,543.248-73.142,1048.372-73.142"/>
	<path fill="none" stroke="#ADADAD" stroke-width="7.7637" d="M174.888,670.65c505.124,0,543.248-9.551,1048.372-9.551"/>
	<path id="squash_x5F_public_2_" fill="none" stroke="#ADADAD" stroke-width="1.5527" d="M174.888,652.782
		c505.124,0,543.248,4.377,1048.372,4.377"/>
	<path id="softball_x5F_public_2_" fill="none" stroke="#ADADAD" stroke-width="11.6455" d="M174.888,590.312
		c505.124,0,543.248,52.727,1048.372,52.727"/>
	<path fill="none" stroke="#DBDBDB" stroke-width="12.4219" d="M174.888,215.187c505.124,0,541.918-126.306,1047.043-126.306"/>
	<path fill="none" stroke="#DBDBDB" stroke-width="11.6455" d="M174.888,548.009c505.124,0,541.918-316.943,1047.043-316.943"/>
	<path fill="none" stroke="#DBDBDB" stroke-width="16.3037" d="M174.888,179.916c505.124,0,541.918-103.184,1047.043-103.184"/>
	<path fill="none" stroke="#DBDBDB" stroke-width="10.0928" d="M174.888,468.792c505.124,0,541.918-270.563,1047.043-270.563"/>
	<path fill="none" stroke="#DBDBDB" stroke-width="31.0547" d="M174.888,72.266c505.124,0,541.918-31.327,1047.043-31.327"/>
	<path fill="none" stroke="#DBDBDB" stroke-width="2.3291" d="M174.888,714.731c505.124,0,541.918-423.902,1047.043-423.902"/>
	<path fill="none" stroke="#DBDBDB" stroke-width="24.0674" d="M174.888,253.086c505.124,0,541.918-148.771,1047.043-148.771"/>
	<path fill="none" stroke="#DBDBDB" stroke-width="22.5147" d="M174.888,285.402c505.124,0,541.918-161.385,1047.043-161.385"/>
	<path fill="none" stroke="#DBDBDB" stroke-width="8.54" d="M174.888,606.867c505.124,0,541.918-354.128,1047.043-354.128"/>
	<path fill="none" stroke="#DBDBDB" stroke-width="12.4219" d="M174.888,567.519c505.124,0,541.918-326.273,1047.043-326.273"/>
	<path fill="none" stroke="#DBDBDB" stroke-width="15.5274" d="M174.888,383.336c505.124,0,541.918-217.616,1047.043-217.616"/>
	<path fill="none" stroke="#DBDBDB" stroke-width="8.54" d="M174.888,771.483c505.124,0,541.918-457.011,1047.043-457.011"/>
	<path fill="none" stroke="#DBDBDB" stroke-width="11.6455" d="M174.888,349.378c505.124,0,541.918-195.151,1047.043-195.151"/>
	<path fill="none" stroke="#DBDBDB" stroke-width="3.8818" d="M174.888,701.461c505.124,0,541.918-413.258,1047.043-413.258"/>
	<path fill="none" stroke="#DBDBDB" stroke-width="14.751" d="M174.888,412.04c505.124,0,541.918-233.514,1047.043-233.514"/>
	<path fill="none" stroke="#DBDBDB" stroke-width="18.6328" d="M174.888,317.39c505.124,0,541.918-175.969,1047.043-175.969"/>
	<path fill="none" stroke="#DBDBDB" stroke-width="7.7637" d="M174.888,625.72c505.124,0,541.918-366.086,1047.043-366.086"/>
	<path fill="none" stroke="#DBDBDB" stroke-width="18.6328" d="M174.888,134.136c505.124,0,541.918-72.181,1047.043-72.181"/>
	<path fill="none" stroke="#DBDBDB" stroke-width="3.8818" d="M174.888,786.724c505.124,0,541.918-466.998,1047.043-466.998"/>
	<path fill="none" stroke="#DBDBDB" stroke-width="8.54" d="M174.888,685.563c505.124,0,541.918-402.614,1047.043-402.614"/>
	<path fill="none" stroke="#DBDBDB" stroke-width="11.6455" d="M174.888,494.541c505.124,0,541.918-287.118,1047.043-287.118"/>
	<path fill="none" stroke="#DBDBDB" stroke-width="16.3037" d="M174.888,522.917c505.124,0,541.918-303.672,1047.043-303.672"/>
	<path fill="none" stroke="#DBDBDB" stroke-width="10.8692" d="M174.888,439.431c505.124,0,541.918-250.068,1047.043-250.068"/>
	<path fill="none" stroke="#DBDBDB" stroke-width="22.5147" d="M174.888,735.883c505.124,0,541.918-434.546,1047.043-434.546"/>
	<path fill="none" stroke="#DBDBDB" stroke-width="6.9873" d="M174.888,664.411c505.124,0,541.918-388.03,1047.043-388.03"/>
	<path id="squash_x5F_priv_2_" fill="none" stroke="#DBDBDB" stroke-width="12.4219" d="M174.888,646.872
		c505.124,0,541.918-378.7,1047.043-378.7"/>
	<path id="softball_x5F_private_2_" fill="none" stroke="#DBDBDB" stroke-width="3.1055" d="M174.888,584.073
		c505.124,0,541.918-336.26,1047.043-336.26"/>
</g>
<style>
#g-unisportsfinalai-Artboard_1-stuff-img rect, #g-unisportsfinalai-Artboard_1-stuff-img circle, #g-unisportsfinalai-Artboard_1-stuff-img path, #g-unisportsfinalai-Artboard_1-stuff-img line, #g-unisportsfinalai-Artboard_1-stuff-img polyline { vector-effect: non-scaling-stroke; }
</style>
</svg>

