<?xml version="1.0" encoding="utf-8"?>
<!-- Generator: Adobe Illustrator 24.3.0, SVG Export Plug-In . SVG Version: 6.00 Build 0)  -->
<svg version="1.2" baseProfile="tiny" id="g-unisportsfinalai-Artboard_8-stuff2-img" xmlns="http://www.w3.org/2000/svg" xmlns:xlink="http://www.w3.org/1999/xlink"
	 x="0px" y="0px" viewBox="0 0 600 672.511" overflow="visible" xml:space="preserve">
<g>
	<path fill="none" stroke="#000000" stroke-width="1.5527" d="M14.106,601.525c276.576,0,295.685-0.238,574.21-0.238"/>
	<path fill="none" stroke="#000000" d="M14.106,615.309c276.576,0,295.685-13.248,574.21-13.248"/>
	<path fill="none" stroke="#000000" d="M14.106,588.256c276.576,0,295.685,12.256,574.21,12.256"/>
	<rect x="11.253" y="156.333" width="2.853" height="19.613"/>
	<rect x="587.672" y="7.66" width="2.853" height="236.249"/>
	<rect x="11.253" y="418.155" width="2.853" height="8.774"/>
	<rect x="11.253" y="127.322" width="2.853" height="22.71"/>
	<rect x="11.253" y="356.415" width="2.853" height="13.419"/>
	<rect x="11.253" y="37.818" width="2.853" height="46.452"/>
	<rect x="11.253" y="552.279" width="2.853" height="3.613"/>
	<rect x="11.253" y="182.246" width="2.853" height="19.613"/>
	<rect x="11.253" y="208.16" width="2.853" height="20.129"/>
	<rect x="11.253" y="465.443" width="2.853" height="8.774"/>
	<rect x="11.253" y="433.229" width="2.853" height="9.806"/>
	<rect x="11.253" y="287.448" width="2.853" height="16.516"/>
	<rect x="11.253" y="594.815" width="2.853" height="7.226"/>
	<rect x="11.253" y="262.051" width="2.853" height="19.097"/>
	<rect x="11.253" y="541.333" width="2.853" height="4.645"/>
	<rect x="11.253" y="310.265" width="2.853" height="16.516"/>
	<rect x="11.253" y="449.336" width="2.853" height="9.806"/>
	<rect x="11.253" y="234.589" width="2.853" height="21.161"/>
	<rect x="11.253" y="480.518" width="2.853" height="8.774"/>
	<rect x="11.253" y="90.57" width="2.853" height="30.452"/>
	<rect x="11.253" y="608.341" width="2.853" height="7.226"/>
	<rect x="11.253" y="527.29" width="2.853" height="7.742"/>
	<rect x="11.253" y="376.134" width="2.853" height="14.452"/>
	<rect x="11.253" y="396.886" width="2.853" height="14.968"/>
	<rect x="11.253" y="333.082" width="2.853" height="17.032"/>
	<rect x="11.253" y="562.192" width="2.853" height="26.323"/>
	<rect x="11.253" y="495.593" width="2.853" height="9.29"/>
	<rect x="11.253" y="511.184" width="2.853" height="9.806"/>
	<rect x="588.401" y="347.064" width="2.853" height="189.957"/>
	<rect x="588.316" y="600.255" width="2.853" height="2.065"/>
	<path fill="none" stroke="#ADADAD" stroke-width="17.0801" d="M14.106,170.268c276.576,0,295.77,245.151,574.295,245.151"/>
	<path fill="none" stroke="#ADADAD" stroke-width="1.5527" d="M14.106,426.413c276.576,0,295.77,64.361,574.295,64.361"/>
	<path fill="none" stroke="#ADADAD" stroke-width="17.8565" d="M13.106,144.097c276.576,0,295.77,259.709,574.295,259.709"/>
	<path fill="none" stroke="#ADADAD" stroke-width="10.0928" d="M14.106,366.479c276.576,0,295.77,109.585,574.295,109.585"/>
	<path fill="none" stroke="#ADADAD" stroke-width="38.8184" d="M14.106,71.366c276.576,0,295.77,295.536,574.295,295.536"/>
	<path fill="none" stroke="#ADADAD" stroke-width="3.1055" d="M14.106,554.859c276.576,0,295.77-36.214,574.295-36.214"/>
	<path fill="none" stroke="#ADADAD" stroke-width="5.4346" d="M14.106,200.053c276.576,0,295.77,222.85,574.295,222.85"/>
	<path fill="none" stroke="#ADADAD" stroke-width="7.7637" d="M14.106,225.708c276.576,0,295.77,201.582,574.295,201.582"/>
	<path fill="none" stroke="#ADADAD" stroke-width="4.6582" d="M14.106,472.669c276.576,0,295.77,29.46,574.295,29.46"/>
	<path fill="none" stroke="#ADADAD" stroke-width="2.3291" d="M14.106,442.262c276.576,0,295.77,49.803,574.295,49.803"/>
	<path fill="none" stroke="#ADADAD" stroke-width="9.3164" d="M14.106,300.868c276.576,0,295.77,152.229,574.295,152.229"/>
	<path fill="none" stroke="#ADADAD" d="M14.106,600.75c276.576,0,295.77-69.976,574.295-69.976"/>
	<path fill="none" stroke="#ADADAD" stroke-width="17.0801" d="M14.106,275.47c276.576,0,295.77,168.852,574.295,168.852"/>
	<path fill="none" stroke="#ADADAD" stroke-width="3.1055" d="M14.106,544.946c276.576,0,295.77-28.365,574.295-28.365"/>
	<path fill="none" stroke="#ADADAD" stroke-width="10.0928" d="M14.106,323.426c276.576,0,295.77,136.122,574.295,136.122"/>
	<path fill="none" stroke="#ADADAD" stroke-width="13.1983" d="M14.106,251.364c276.576,0,295.77,182.894,574.295,182.894"/>
	<path fill="none" stroke="#ADADAD" stroke-width="5.4346" d="M14.106,487.486c276.576,0,295.77,17.998,574.295,17.998"/>
	<path fill="none" stroke="#ADADAD" stroke-width="27.1729" d="M14.106,111.99c276.576,0,295.77,276.848,574.295,276.848"/>
	<path fill="none" stroke="#ADADAD" stroke-width="6.2109" d="M14.106,612.986c276.576,0,295.77-79.889,574.295-79.889"/>
	<path fill="none" stroke="#ADADAD" stroke-width="3.1055" d="M14.106,534c276.576,0,295.77-19.484,574.295-19.484"/>
	<path fill="none" stroke="#ADADAD" stroke-width="10.0928" d="M14.106,387.231c276.576,0,295.77,95.543,574.295,95.543"/>
	<path fill="none" stroke="#ADADAD" stroke-width="6.2109" d="M14.106,409.79c276.576,0,295.77,78.404,574.295,78.404"/>
	<path fill="none" stroke="#ADADAD" stroke-width="14.751" d="M14.106,345.211c276.576,0,295.77,122.596,574.295,122.596"/>
	<path fill="none" stroke="#ADADAD" stroke-width="16.3037" d="M14.106,582.579c276.576,0,295.77-57.482,574.295-57.482"/>
	<path fill="none" stroke="#ADADAD" stroke-width="7.7637" d="M14.106,518.409c276.576,0,295.77-7.506,574.295-7.506"/>
	<path id="squash_x5F_public2_1_" fill="none" stroke="#ADADAD" stroke-width="1.5527" d="M14.106,504.367
		c276.576,0,295.77,3.44,574.295,3.44"/>
	<path id="softball_x5F_public2_1_" fill="none" stroke="#ADADAD" stroke-width="11.6455" d="M14.106,455.272
		c276.576,0,295.77,41.438,574.295,41.438"/>
	<path fill="none" stroke="#DBDBDB" stroke-width="12.4219" d="M14.106,160.462c276.576,0,295.041-99.264,573.566-99.264"/>
	<path fill="none" stroke="#DBDBDB" stroke-width="11.6455" d="M14.106,422.026c276.576,0,295.041-249.085,573.566-249.085"/>
	<path fill="none" stroke="#DBDBDB" stroke-width="16.3037" d="M14.106,132.742c276.576,0,295.041-81.092,573.566-81.092"/>
	<path fill="none" stroke="#DBDBDB" stroke-width="10.0928" d="M14.106,359.769c276.576,0,295.041-212.635,573.566-212.635"/>
	<path fill="none" stroke="#DBDBDB" stroke-width="31.0547" d="M14.106,48.141c276.576,0,295.041-24.62,573.566-24.62"/>
	<path fill="none" stroke="#DBDBDB" stroke-width="2.3291" d="M14.106,553.053c276.576,0,295.041-333.144,573.566-333.144"/>
	<path fill="none" stroke="#DBDBDB" stroke-width="24.0674" d="M14.106,190.246c276.576,0,295.041-116.919,573.566-116.919"/>
	<path fill="none" stroke="#DBDBDB" stroke-width="22.5147" d="M14.106,215.644c276.576,0,295.041-126.832,573.566-126.832"/>
	<path fill="none" stroke="#DBDBDB" stroke-width="8.54" d="M14.106,468.282c276.576,0,295.041-278.309,573.566-278.309"/>
	<path fill="none" stroke="#DBDBDB" stroke-width="12.4219" d="M14.106,437.358c276.576,0,295.041-256.418,573.566-256.418"/>
	<path fill="none" stroke="#DBDBDB" stroke-width="15.5274" d="M14.106,292.61c276.576,0,295.041-171.024,573.566-171.024"/>
	<path fill="none" stroke="#DBDBDB" stroke-width="8.54" d="M14.106,597.654c276.576,0,295.041-359.164,573.566-359.164"/>
	<path fill="none" stroke="#DBDBDB" stroke-width="11.6455" d="M14.106,265.922c276.576,0,295.041-153.369,573.566-153.369"/>
	<path fill="none" stroke="#DBDBDB" stroke-width="3.8818" d="M14.106,542.623c276.576,0,295.041-324.779,573.566-324.779"/>
	<path fill="none" stroke="#DBDBDB" stroke-width="14.751" d="M14.106,315.168c276.576,0,295.041-183.518,573.566-183.518"/>
	<path fill="none" stroke="#DBDBDB" stroke-width="18.6328" d="M14.106,240.783c276.576,0,295.041-138.294,573.566-138.294"/>
	<path fill="none" stroke="#DBDBDB" stroke-width="7.7637" d="M14.106,483.099c276.576,0,295.041-287.706,573.566-287.706"/>
	<path fill="none" stroke="#DBDBDB" stroke-width="18.6328" d="M14.106,96.764c276.576,0,295.041-56.727,573.566-56.727"/>
	<path fill="none" stroke="#DBDBDB" stroke-width="3.8818" d="M14.106,609.632c276.576,0,295.041-367.013,573.566-367.013"/>
	<path fill="none" stroke="#DBDBDB" stroke-width="8.54" d="M14.106,530.129c276.576,0,295.041-316.414,573.566-316.414"/>
	<path fill="none" stroke="#DBDBDB" stroke-width="11.6455" d="M14.106,380.005c276.576,0,295.041-225.645,573.566-225.645"/>
	<path fill="none" stroke="#DBDBDB" stroke-width="16.3037" d="M14.106,402.306c276.576,0,295.041-238.655,573.566-238.655"/>
	<path fill="none" stroke="#DBDBDB" stroke-width="10.8692" d="M14.106,336.695c276.576,0,295.041-196.528,573.566-196.528"/>
	<path fill="none" stroke="#DBDBDB" stroke-width="22.5147" d="M14.106,569.676c276.576,0,295.041-341.509,573.566-341.509"/>
	<path fill="none" stroke="#DBDBDB" stroke-width="6.9873" d="M14.106,513.506c276.576,0,295.041-304.952,573.566-304.952"/>
	<path id="squash_x5F_priv2_1_" fill="none" stroke="#DBDBDB" stroke-width="12.4219" d="M14.106,499.722
		c276.576,0,295.041-297.619,573.566-297.619"/>
	<path id="softball_x5F_private2_1_" fill="none" stroke="#DBDBDB" stroke-width="3.1055" d="M14.106,450.369
		c276.576,0,295.041-264.266,573.566-264.266"/>
</g>
<style>
#g-unisportsfinalai-Artboard_8-stuff2-img rect, #g-unisportsfinalai-Artboard_8-stuff2-img circle, #g-unisportsfinalai-Artboard_8-stuff2-img path, #g-unisportsfinalai-Artboard_8-stuff2-img line, #g-unisportsfinalai-Artboard_8-stuff2-img polyline { vector-effect: non-scaling-stroke; }
</style>
</svg>

